# xmcd
# 
# Track frame offsets:
#     150
#     22781
#     39525
#     57177
# 
# Disc length: 1046
# 
# Revision: 0
# Processed by: cddbd v1.5.2PL0 Copyright (c) Steve Scherf et al.
# Submitted via: fre:ac v1.0.17
# 
DISCID=25041404
DTITLE=Reborn - Blood And Hell
DYEAR=2009
DGENRE=Heavy Metal
TTITLE0=Patriot
TTITLE1=See The End
TTITLE2=Calm Or The Storm
TTITLE3=Forever Known
EXTD=
EXTT0=
EXTT1=
EXTT2=
EXTT3=
PLAYORDER=
